<svg width="512" height="512" xmlns="http://www.w3.org/2000/svg">

 <g>
  <title>background</title>
  <rect fill="none" id="canvas_background" height="402" width="582" y="-1" x="-1"/>
 </g>
 <g>
  <title>Layer 1</title>
  <path fill="#CC3C00" id="svg_2" fill-rule="evenodd" clip-rule="evenodd" d="m409.537487,206.4l0,-142.339l-246.65,0l0,142.339l246.65,0zm6.688,-145.683l0,149.027c0,1.85 -1.523,3.344 -3.345,3.344l-253.337,0c-1.822,0 -3.317,-1.494 -3.317,-3.344l0,-149.027c0,-1.85 1.495,-3.344 3.317,-3.344l253.337,0c1.821,0 3.345,1.494 3.345,3.344zm-127.852,179.773c-0.462,-0.462 -1.143,-0.76 -1.85,-0.76c-0.733,0 -1.387,0.271 -1.848,0.732c-0.49,0.49 -0.762,1.143 -0.762,1.877c0,0.707 0.271,1.386 0.762,1.848c0.461,0.463 1.114,0.762 1.848,0.762c0.707,0 1.388,-0.299 1.85,-0.762c0.461,-0.462 0.762,-1.141 0.762,-1.848c0,-0.68 -0.246,-1.277 -0.653,-1.74l-0.109,-0.109zm-1.849,-7.449c2.557,0 4.894,1.034 6.58,2.72l0.216,0.245c1.552,1.658 2.502,3.887 2.502,6.334c0,2.555 -1.06,4.893 -2.718,6.578c-1.687,1.658 -4.023,2.719 -6.58,2.719c-2.555,0 -4.893,-1.033 -6.579,-2.719c-1.685,-1.686 -2.718,-4.023 -2.718,-6.578c0,-2.556 1.033,-4.894 2.718,-6.552c1.686,-1.713 4.024,-2.747 6.579,-2.747zm-108.277,66.984l12.287,7.096l12.805,-22.183l-12.287,-7.095l-12.805,22.182zm64.618,79.897c-0.109,-0.461 -0.407,-0.896 -0.816,-1.195l-0.353,-0.218c-0.463,-0.19 -0.979,-0.218 -1.441,-0.081c-0.463,0.108 -0.898,0.407 -1.197,0.843l-0.163,0.299c-0.217,0.435 -0.244,0.924 -0.163,1.386l0.028,0.082c0.135,0.518 0.488,1.006 1.006,1.305c0.489,0.272 1.086,0.326 1.604,0.19c0.49,-0.136 0.951,-0.435 1.223,-0.87l0.081,-0.135c0.272,-0.491 0.354,-1.089 0.191,-1.606zm2.12,-7.502l0.653,0.381c2.013,1.25 3.371,3.18 3.941,5.327c0.572,2.12 0.381,4.486 -0.733,6.552l-0.407,0.707c-1.277,1.984 -3.153,3.289 -5.275,3.86c-2.229,0.599 -4.703,0.326 -6.877,-0.924c-2.176,-1.251 -3.643,-3.263 -4.241,-5.491l-0.054,-0.245c-0.516,-2.175 -0.244,-4.567 0.979,-6.66c1.277,-2.175 3.262,-3.616 5.491,-4.214c2.121,-0.571 4.43,-0.381 6.523,0.707zm-15.468,30.664c-0.135,-0.543 -0.49,-1.006 -1.006,-1.305c-0.489,-0.299 -1.088,-0.354 -1.604,-0.218c-0.544,0.136 -1.034,0.49 -1.306,0.979c-0.298,0.516 -0.353,1.114 -0.218,1.631c0.164,0.543 0.49,1.033 1.007,1.305c0.488,0.299 1.086,0.354 1.604,0.218c0.542,-0.163 1.005,-0.489 1.304,-1.007c0.302,-0.488 0.356,-1.086 0.219,-1.603zm2.474,-7.313c2.174,1.251 3.643,3.263 4.241,5.519c0.598,2.229 0.326,4.703 -0.925,6.878s-3.262,3.643 -5.519,4.241c-2.229,0.598 -4.703,0.326 -6.851,-0.925c-2.202,-1.251 -3.669,-3.263 -4.268,-5.519c-0.572,-2.229 -0.327,-4.703 0.925,-6.878c1.249,-2.174 3.288,-3.643 5.517,-4.24c2.232,-0.598 4.706,-0.326 6.88,0.924zm-13.239,-29.767c-0.135,-0.489 -0.407,-0.924 -0.842,-1.196l-0.353,-0.218c-0.463,-0.19 -0.953,-0.217 -1.415,-0.108c-0.489,0.136 -0.925,0.435 -1.197,0.843l-0.189,0.326c-0.191,0.435 -0.246,0.924 -0.137,1.359l0,0.082c0.137,0.543 0.49,1.005 1.007,1.305c0.489,0.299 1.086,0.354 1.63,0.217c0.463,-0.136 0.925,-0.435 1.223,-0.87l0.054,-0.136c0.301,-0.516 0.355,-1.087 0.219,-1.604zm2.093,-7.53l0.679,0.381c2.013,1.278 3.373,3.208 3.943,5.354c0.57,2.121 0.353,4.459 -0.733,6.553l-0.435,0.706c-1.251,1.958 -3.153,3.289 -5.275,3.86c-2.229,0.599 -4.703,0.326 -6.877,-0.924c-2.176,-1.251 -3.643,-3.29 -4.241,-5.519l-0.054,-0.218c-0.516,-2.175 -0.218,-4.566 0.979,-6.66c1.277,-2.175 3.289,-3.643 5.519,-4.241c2.091,-0.571 4.43,-0.353 6.495,0.708zm-15.468,30.665c-0.135,-0.518 -0.49,-1.006 -0.979,-1.305c-0.516,-0.272 -1.086,-0.326 -1.63,-0.191c-0.518,0.137 -1.005,0.49 -1.306,0.979c-0.272,0.518 -0.326,1.088 -0.189,1.633c0.135,0.516 0.49,1.005 0.978,1.305c0.489,0.271 1.088,0.326 1.632,0.189c0.516,-0.136 1.005,-0.489 1.306,-0.979c0.271,-0.49 0.325,-1.088 0.188,-1.631zm2.474,-7.314c2.174,1.278 3.643,3.289 4.241,5.519c0.598,2.229 0.326,4.703 -0.925,6.878s-3.262,3.643 -5.491,4.241c-2.23,0.599 -4.705,0.326 -6.878,-0.925c-2.174,-1.25 -3.643,-3.263 -4.241,-5.491c-0.599,-2.229 -0.327,-4.703 0.896,-6.878c1.279,-2.175 3.29,-3.642 5.519,-4.24c2.231,-0.599 4.705,-0.327 6.879,0.896zm-75.384,-19.872c0.081,-0.271 0.189,-0.517 0.327,-0.734c1.114,-1.957 1.332,-4.186 0.788,-6.197c-0.516,-1.93 -1.739,-3.67 -3.588,-4.813l-0.407,-0.244c-1.875,-1.006 -4.023,-1.196 -5.954,-0.68s-3.697,1.768 -4.812,3.588l-0.246,0.408c-0.679,1.25 -1.005,2.664 -0.978,4.023c0.026,1.469 0.49,2.909 1.277,4.159c0.135,0.245 0.244,0.489 0.327,0.734c0.653,0.843 1.44,1.55 2.419,2.093c1.957,1.143 4.213,1.359 6.252,0.816c1.795,-0.461 3.453,-1.548 4.595,-3.153zm33.709,27.375l0.463,-0.054l0.544,0c1.413,0.026 2.827,-0.327 4.104,-1.006c1.223,-0.68 2.337,-1.739 3.099,-3.046c1.114,-1.956 1.332,-4.158 0.788,-6.17c-0.516,-2.012 -1.848,-3.833 -3.778,-4.947c-1.93,-1.115 -4.159,-1.332 -6.171,-0.789c-1.984,0.517 -3.806,1.849 -4.92,3.779c-0.135,0.244 -0.326,0.462 -0.489,0.652c-0.816,1.795 -0.925,3.752 -0.462,5.546c0.544,1.983 1.822,3.778 3.697,4.921l0.381,0.244c0.868,0.462 1.793,0.762 2.744,0.87zm-52.087,-83.675c-1.876,-6.986 -6.416,-13.267 -13.185,-17.181l-0.026,-0.027c-6.77,-3.915 -14.517,-4.703 -21.503,-2.828c-6.987,1.876 -13.268,6.416 -17.181,13.186l-0.028,0.027c-3.915,6.769 -4.703,14.518 -2.827,21.504c1.876,6.986 6.416,13.266 13.186,17.18l0.026,0.027c6.77,3.914 14.489,4.703 21.503,2.827c6.987,-1.876 13.268,-6.415 17.183,-13.185l0.026,-0.027c3.914,-6.769 4.702,-14.489 2.826,-21.503zm-9.731,-23.215c8.455,4.893 14.108,12.723 16.447,21.422c2.337,8.699 1.332,18.322 -3.534,26.777c-4.894,8.454 -12.724,14.109 -21.422,16.446c-8.7,2.338 -18.323,1.332 -26.777,-3.534c-8.455,-4.893 -14.108,-12.695 -16.447,-21.422c-2.337,-8.699 -1.332,-18.322 3.534,-26.777c4.866,-8.453 12.695,-14.108 21.422,-16.447c8.699,-2.338 18.322,-1.332 26.777,3.535zm-14.108,17.779c0.896,-1.577 2.936,-2.121 4.54,-1.224c1.576,0.924 2.12,2.963 1.223,4.54l-4.757,8.236l8.237,4.758c1.604,0.924 2.148,2.963 1.223,4.539c-0.925,1.604 -2.964,2.148 -4.568,1.224l-8.208,-4.757l-4.757,8.236c-0.925,1.578 -2.964,2.121 -4.541,1.225c-1.604,-0.926 -2.148,-2.965 -1.223,-4.541l4.757,-8.236l-8.237,-4.758c-1.604,-0.924 -2.147,-2.963 -1.223,-4.54c0.925,-1.604 2.963,-2.147 4.54,-1.224l8.237,4.758l4.757,-8.236zm323.038,-44.746c3.426,0 6.551,-1.415 8.808,-3.671c2.257,-2.257 3.643,-5.355 3.643,-8.78l0,-182.576c0,-3.344 -1.332,-6.388 -3.479,-8.645l-0.163,-0.163c-2.257,-2.257 -5.382,-3.643 -8.808,-3.643l-253.529,0c-3.425,0 -6.55,1.386 -8.807,3.643c-2.256,2.283 -3.671,5.383 -3.671,8.808l0,182.576c0,3.425 1.415,6.523 3.671,8.78c2.257,2.283 5.382,3.671 8.807,3.671c83.976,0 167.705,0 253.528,0zm-209.733,21.584l6.252,3.615c1.658,0.952 2.23,3.072 1.251,4.73l-12.587,21.857c0.407,-0.191 0.871,-0.3 1.36,-0.3l38.113,0l11.797,-44.801l-37.596,0l-8.59,14.899zm-42.517,41.402l-24.357,-14.055l-1.902,3.29l24.358,14.082l1.901,-3.317zm-23.894,-21.503l30.12,17.398c1.578,0.924 2.12,2.963 1.197,4.566l-5.247,9.053c-0.898,1.604 -2.964,2.147 -4.542,1.224l-30.12,-17.398c-1.576,-0.896 -2.12,-2.963 -1.223,-4.539l5.247,-9.08c0.925,-1.577 2.964,-2.121 4.568,-1.224zm46.267,26.724l30.122,17.398c1.576,0.924 2.12,2.963 1.223,4.539l-5.247,9.08c-0.925,1.604 -2.964,2.147 -4.568,1.223l-30.12,-17.398c-1.578,-0.896 -2.122,-2.936 -1.197,-4.539l5.247,-9.08c0.897,-1.604 2.936,-2.149 4.54,-1.223zm23.896,21.502l-24.358,-14.055l-1.902,3.289l24.357,14.082l1.903,-3.316zm45.236,80.876c0.489,-0.463 0.979,-0.896 1.469,-1.387l0.108,-0.081l0.026,-0.055l0.272,-0.245l0.137,-0.136l0,0l0.135,-0.136l0.516,-0.516l0.137,-0.137l0.081,-0.081l0.028,-0.055c0.461,-0.462 0.896,-0.952 1.332,-1.44l0.135,-0.136l0.109,-0.137l0.028,-0.054l0.081,-0.082l0.109,-0.136l0.137,-0.136l0.218,-0.272l0.134,-0.163l0.109,-0.136l0.028,-0.027l0.08,-0.109l0.109,-0.136l0.108,-0.136l0.081,-0.081l0.027,-0.054l0.136,-0.137l0.108,-0.163l0.218,-0.271l0.108,-0.137l0.109,-0.163l0.055,-0.054l0.054,-0.082l0.109,-0.136l0.108,-0.163l0.108,-0.137l0.109,-0.136l0.108,-0.162l0.109,-0.136l0.054,-0.055l0.055,-0.108l0.109,-0.137l0.108,-0.136l0.081,-0.136l0.027,-0.027l0.081,-0.136l0.108,-0.163l0.109,-0.137l0.028,-0.054l0.08,-0.109l0.109,-0.163l0.082,-0.136l0.081,-0.108l0.027,-0.054l0.109,-0.137l0.081,-0.163l0.108,-0.163l0.028,-0.027l0.08,-0.108l0.109,-0.163l0.082,-0.163l0.055,-0.082l0.055,-0.055l0.08,-0.163l0.109,-0.163l0.08,-0.163l0.028,0l0.081,-0.135l0.082,-0.163l0.109,-0.163l0.054,-0.082l0.026,-0.082l0.109,-0.163l0.082,-0.163l0.109,-0.163c0.624,-1.114 1.223,-2.229 1.767,-3.344l0,-0.027l0.353,-0.762l0.191,-0.353l0,-0.026l0.163,-0.381l0.081,-0.164l0.082,-0.217l0.162,-0.381l0.163,-0.38l0.082,-0.19l0.081,-0.19c0.245,-0.653 0.489,-1.305 0.707,-1.958l0.082,-0.163l0.055,-0.218l0.381,-1.168l0.135,-0.381l0,0l0.109,-0.408l0.054,-0.163l0.081,-0.218l0.083,-0.38l0.025,-0.027l0.083,-0.381l0.055,-0.19l0.054,-0.217l0.109,-0.354l0,-0.027l0.108,-0.407l0.026,-0.163l0.055,-0.218l0.082,-0.381l0,-0.027l0.109,-0.381l0.026,-0.19l0.054,-0.217l0.055,-0.381l0.028,-0.027l0.08,-0.381l0.028,-0.162l0.026,-0.245l0.083,-0.354l0,-0.027l0.054,-0.407l0.026,-0.163l0.055,-0.245l0.055,-0.354l0,-0.027l0.054,-0.408l0.028,-0.162l0.135,-1.196l0.026,-0.245l0.055,-0.354l0,-0.055l0.028,-0.379l0.026,-0.164l0.082,-1.196l0.026,-0.244l0.028,-0.788l0,-0.164l0.026,-0.598l0,-0.055l0,-0.38l0,-0.163c0.055,-4.596 -0.516,-9.135 -1.685,-13.538l-0.326,-1.143l0,-0.081l-0.109,-0.381l-0.054,-0.108l-0.081,-0.272l-0.083,-0.299l-0.054,-0.108l-0.109,-0.381l-0.026,-0.081l-0.108,-0.3l-0.082,-0.272l-0.055,-0.135l-0.135,-0.381l-0.028,-0.027l-0.109,-0.354l-0.08,-0.217l-0.055,-0.164l-0.163,-0.381l0,0l-0.137,-0.379l-0.081,-0.191l-0.082,-0.189l-0.136,-0.354l-0.027,-0.027l-0.136,-0.381l-0.055,-0.137l-0.108,-0.243l-0.135,-0.3l-0.028,-0.081l-0.353,-0.734l-0.109,-0.272l-0.054,-0.108l-0.191,-0.353l-0.026,-0.082l-0.163,-0.299l-0.109,-0.218l-0.054,-0.136l-0.191,-0.381l0,-0.027l-0.189,-0.326l-0.109,-0.189l-0.08,-0.19l0,0l-0.409,-0.708l-0.081,-0.162l-0.108,-0.191l-0.191,-0.326l-0.026,-0.055l-0.218,-0.352l-0.054,-0.109l-0.028,-0.027l0,-0.027c-4.186,-6.986 -10.139,-13.049 -17.697,-17.398l-54.099,-31.234l-0.272,-0.137l-18.267,-10.548l-0.218,-0.136l-54.125,-31.263c-11.799,-6.823 -25.283,-8.21 -37.543,-4.921c-12.152,3.263 -23.08,11.119 -29.903,22.835l-0.109,0.218c-6.824,11.799 -8.21,25.282 -4.948,37.516c3.29,12.233 11.227,23.217 23.052,30.039c7.231,4.187 15.115,6.307 22.945,6.606c6.985,0.218 13.973,-1.034 20.415,-3.644c-0.407,-1.358 -0.651,-2.744 -0.679,-4.159c-0.026,-2.637 0.599,-5.301 1.985,-7.747l0.054,-0.082c2.067,-3.588 5.41,-6.008 9.133,-7.014c3.617,-0.979 7.641,-0.57 11.174,1.387l0.272,0.136c3.589,2.066 6.035,5.437 7.014,9.134c0.707,2.664 0.707,5.52 -0.109,8.237l16.175,9.353c1.957,-2.066 4.431,-3.508 7.068,-4.215c3.724,-1.005 7.856,-0.57 11.445,1.495c3.588,2.094 6.034,5.438 7.014,9.161c1.005,3.725 0.57,7.83 -1.495,11.445c-1.441,2.447 -3.454,4.377 -5.765,5.654c-1.249,0.68 -2.555,1.17 -3.941,1.495c0.951,6.878 3.371,13.539 7.068,19.465c4.159,6.66 9.95,12.396 17.209,16.583c11.797,6.823 25.281,8.21 37.515,4.947c4.838,-1.305 9.515,-3.344 13.782,-6.063l0.054,-0.054l0.083,-0.027l0.163,-0.109l0,0l0.163,-0.107l0.135,-0.082l0.163,-0.108l0.3,-0.19l0.135,-0.109l0.109,-0.081l0.055,-0.027l0.163,-0.108l0.135,-0.109l0.137,-0.081l0.026,0l0.137,-0.109l0.163,-0.108l0.135,-0.109l0.028,-0.026l0.135,-0.082l0.137,-0.108l0.135,-0.109l0.083,-0.054l0.488,-0.354l0.028,-0.027l0.135,-0.108l0.163,-0.108l0.137,-0.109l0.026,-0.027l0.109,-0.108l0.163,-0.108l0.137,-0.109l0.055,-0.027l0.081,-0.081l0.163,-0.109l0.137,-0.136l0.081,-0.055l0.054,-0.054l0.272,-0.218l0.164,-0.108l0,-0.026l0.135,-0.109l0.137,-0.108l0.135,-0.136l0.028,-0.027l0.244,-0.218l0.163,-0.109l0.055,-0.054l0.083,-0.082l0.143,-0.116zm59.4,-106.566l-3.371,-5.845l-68.044,0l-0.109,0l-37.244,0l0,0.788l6.77,3.889l6.931,1.168l95.067,0zm4.594,7.965l-0.734,-1.305l-92.294,0.027l24.357,14.055c7.586,4.377 13.757,10.221 18.377,16.99c16.284,-10.112 33.194,-20.007 50.294,-29.767zm-12.94,-29.332l6.278,-3.616l-10.791,-18.676l5.763,-3.316l10.794,18.676l6.252,-3.615c0.353,-0.218 0.707,-0.327 1.086,-0.408l-6.578,-25.01l-59.78,0l-11.771,44.801l59.861,0l-2.365,-4.077c-0.951,-1.66 -0.381,-3.808 1.251,-4.759zm18.757,-2.8l-12.26,7.067l12.478,21.639l12.315,-6.986l-12.533,-21.72zm-45.154,123.419c0.597,-2.229 2.065,-4.268 4.239,-5.519c2.176,-1.25 4.65,-1.522 6.879,-0.924s4.241,2.066 5.49,4.241c1.278,2.174 1.523,4.648 0.925,6.878c-0.598,2.256 -2.065,4.268 -4.241,5.518c-2.174,1.251 -4.648,1.523 -6.877,0.925c-2.229,-0.599 -4.269,-2.066 -5.519,-4.241c-1.25,-2.174 -1.494,-4.648 -0.896,-6.878zm7.694,0.49c-0.49,0.271 -0.843,0.762 -0.979,1.305c-0.163,0.517 -0.081,1.115 0.191,1.604c0.298,0.517 0.788,0.87 1.304,1.006c0.544,0.137 1.114,0.082 1.632,-0.217c0.489,-0.3 0.842,-0.762 0.978,-1.305c0.137,-0.517 0.082,-1.115 -0.189,-1.604c-0.299,-0.517 -0.788,-0.87 -1.306,-1.006c-0.543,-0.136 -1.142,-0.082 -1.631,0.217zm3.07,-37.57c0.599,-2.256 2.067,-4.268 4.215,-5.518c2.202,-1.252 4.675,-1.523 6.905,-0.925c2.229,0.599 4.241,2.065 5.49,4.241c1.251,2.174 1.523,4.648 0.925,6.877c-0.57,2.148 -1.93,4.078 -3.941,5.355l-0.681,0.381c-2.093,1.061 -4.402,1.251 -6.496,0.707c-2.121,-0.571 -4.078,-1.931 -5.329,-3.942l-0.381,-0.679c-1.086,-2.093 -1.277,-4.403 -0.707,-6.497zm7.694,0.489c-0.489,0.3 -0.842,0.762 -0.979,1.305c-0.136,0.517 -0.081,1.115 0.191,1.604c0.298,0.517 0.787,0.87 1.304,1.006c0.518,0.137 1.114,0.082 1.632,-0.218c0.489,-0.299 0.842,-0.761 0.978,-1.305c0.137,-0.517 0.082,-1.114 -0.19,-1.604c-0.298,-0.517 -0.787,-0.87 -1.305,-1.007c-0.544,-0.134 -1.114,-0.079 -1.631,0.219zm5.655,22.646c0.599,-2.229 2.067,-4.24 4.241,-5.492c2.175,-1.25 4.648,-1.521 6.879,-0.924c2.255,0.599 4.268,2.066 5.517,4.241c1.251,2.175 1.523,4.648 0.925,6.878c-0.599,2.229 -2.065,4.24 -4.241,5.491c-2.174,1.278 -4.648,1.522 -6.877,0.925c-2.23,-0.599 -4.268,-2.066 -5.519,-4.241c-1.197,-2.094 -1.495,-4.458 -0.979,-6.634l0.054,-0.244zm7.72,0.489c-0.516,0.3 -0.87,0.789 -1.006,1.305l0,0.082c-0.137,0.517 -0.054,1.061 0.219,1.549c0.271,0.49 0.76,0.844 1.303,0.979c0.518,0.136 1.117,0.082 1.633,-0.19c0.489,-0.299 0.815,-0.789 0.979,-1.305c0.135,-0.544 0.081,-1.115 -0.217,-1.631c-0.301,-0.489 -0.762,-0.844 -1.307,-0.979c-0.516,-0.136 -1.113,-0.081 -1.604,0.19zm71.118,-27.266c0.189,0.189 0.352,0.408 0.489,0.652c0.135,0.218 0.243,0.463 0.324,0.734c1.116,1.604 2.774,2.691 4.567,3.181c2.039,0.544 4.322,0.299 6.281,-0.843c0.951,-0.543 1.738,-1.251 2.391,-2.066l0.164,-0.407c0.191,-0.381 0.436,-0.708 0.707,-0.979c0.244,-0.488 0.436,-1.033 0.598,-1.549c0.517,-1.985 0.327,-4.187 -0.734,-6.117l-0.189,-0.326c-1.143,-1.875 -2.936,-3.152 -4.921,-3.697c-1.984,-0.517 -4.187,-0.326 -6.089,0.734l-0.381,0.218c-1.85,1.142 -3.127,2.909 -3.671,4.894c-0.462,1.792 -0.353,3.777 0.464,5.571zm43.033,-60.351l4.729,8.237l8.239,-4.758l3.343,5.764l-8.237,4.757l4.757,8.237l-5.762,3.316l-4.758,-8.236l-8.236,4.756l-3.345,-5.762l8.237,-4.758l-4.731,-8.237l5.764,-3.316zm-77.016,14.136l30.121,-17.398c1.604,-0.896 3.644,-0.354 4.54,1.224l5.247,9.08c0.924,1.577 0.381,3.643 -1.197,4.54l-30.12,17.398c-1.604,0.924 -3.644,0.38 -4.567,-1.224l-5.247,-9.08c-0.897,-1.577 -0.353,-3.616 1.223,-4.54zm30.557,-9.95l-24.331,14.055l1.903,3.316l24.357,-14.055l-1.929,-3.316zm-46.27,26.723l-24.357,14.055l1.902,3.316l24.386,-14.055l-1.931,-3.316zm-30.555,9.95l30.12,-17.398c1.604,-0.897 3.644,-0.354 4.54,1.224l5.247,9.08c0.896,1.604 0.354,3.643 -1.223,4.539l-30.121,17.398c-1.604,0.924 -3.643,0.381 -4.541,-1.223l-5.247,-9.08c-0.923,-1.577 -0.379,-3.616 1.225,-4.54zm72.53,-237.787c1.303,-1.278 3.425,-1.278 4.73,0c1.304,1.305 1.304,3.425 0,4.729l-61.33,61.357c-1.307,1.277 -3.426,1.277 -4.731,0c-1.304,-1.305 -1.304,-3.426 0,-4.73l61.331,-61.356zm-14.544,-37.515c1.277,-1.305 3.425,-1.305 4.702,0c1.305,1.305 1.305,3.425 0,4.729l-106.05,106.05c-1.304,1.304 -3.425,1.304 -4.729,0c-1.277,-1.306 -1.277,-3.425 0,-4.731l106.077,-106.048zm-97.84,32.051c1.306,-1.305 3.425,-1.305 4.73,0c1.304,1.305 1.304,3.425 0,4.729l-58.257,58.23c-1.305,1.305 -3.425,1.305 -4.73,0c-1.304,-1.305 -1.304,-3.425 0,-4.731l58.257,-58.228zm194.048,207.828c-1.876,-6.986 -6.418,-13.266 -13.186,-17.18l-0.055,-0.027c-6.77,-3.915 -14.49,-4.704 -21.477,-2.828c-6.987,1.876 -13.294,6.416 -17.208,13.186l0,0.027c-3.915,6.769 -4.703,14.489 -2.827,21.503c1.875,6.987 6.415,13.267 13.186,17.181l0.025,0.027c6.771,3.914 14.491,4.703 21.505,2.827c6.985,-1.876 13.266,-6.415 17.181,-13.185l0.026,-0.027c3.889,-6.768 4.704,-14.49 2.83,-21.504zm-9.735,-23.215c8.429,4.894 14.11,12.724 16.447,21.422c2.338,8.699 1.332,18.322 -3.533,26.778c-4.895,8.453 -12.723,14.108 -21.449,16.445c-8.699,2.339 -18.296,1.332 -26.751,-3.533c-8.454,-4.894 -14.136,-12.723 -16.445,-21.422c-2.339,-8.699 -1.36,-18.322 3.534,-26.777c4.865,-8.454 12.693,-14.109 21.42,-16.447c8.7,-2.337 18.323,-1.333 26.777,3.534zm-90.824,96.316c-0.518,-2.012 -1.85,-3.833 -3.779,-4.975l-0.08,-0.027c-1.959,-1.142 -4.214,-1.386 -6.253,-0.843c-2.013,0.544 -3.834,1.849 -4.975,3.779l-0.054,0.081c-1.143,1.958 -1.36,4.241 -0.816,6.28s1.875,3.887 3.86,5.002c1.956,1.142 4.213,1.386 6.252,0.842c2.039,-0.543 3.887,-1.902 5.029,-3.859c1.142,-1.957 1.361,-4.241 0.816,-6.28zm-242.029,79.734c-1.821,0 -3.343,-1.496 -3.343,-3.345c0,-1.82 1.521,-3.316 3.343,-3.316l225.528,0c1.848,0 3.345,1.496 3.345,3.316c0,1.849 -1.497,3.345 -3.345,3.345l-225.528,0zm132.066,10.059c-1.849,0 -3.344,-1.495 -3.344,-3.344s1.495,-3.344 3.344,-3.344l156.041,0c1.85,0 3.345,1.495 3.345,3.344s-1.495,3.344 -3.345,3.344l-156.041,0zm172.028,0c-1.85,0 -3.345,-1.495 -3.345,-3.344s1.495,-3.344 3.345,-3.344l19.49,0c1.849,0 3.344,1.495 3.344,3.344s-1.495,3.344 -3.344,3.344l-19.49,0zm-312.955,-0.3c-1.85,0 -3.345,-1.495 -3.345,-3.344s1.495,-3.344 3.345,-3.344l73.943,0c1.821,0 3.343,1.495 3.343,3.344s-1.521,3.344 -3.343,3.344l-73.943,0zm28.462,-360.527c0,1.849 -1.495,3.344 -3.343,3.344c-1.85,0 -3.345,-1.495 -3.345,-3.344l0,-78.211c0,-5.764 2.366,-11.01 6.144,-14.789c3.806,-3.807 9.053,-6.17 14.817,-6.17l44.963,0c1.822,0 3.316,1.494 3.316,3.344c0,1.848 -1.495,3.343 -3.316,3.343l-44.963,0c-3.915,0 -7.503,1.604 -10.086,4.159c-2.583,2.609 -4.187,6.172 -4.187,10.113l0,78.211zm296.562,-92.484c-1.849,0 -3.343,-1.495 -3.343,-3.343c0,-1.85 1.494,-3.344 3.343,-3.344c5.763,0 10.982,2.363 14.789,6.143c3.777,3.807 6.143,9.053 6.143,14.816l0,33.057c0,1.85 -1.495,3.344 -3.343,3.344c-1.821,0 -3.344,-1.494 -3.344,-3.344l0,-33.056c0,-3.941 -1.578,-7.504 -4.159,-10.086c-2.611,-2.582 -6.172,-4.187 -10.086,-4.187zm-70.926,355.771l16.61,-9.597c-0.789,-2.69 -0.815,-5.519 -0.108,-8.128c0.978,-3.615 3.288,-6.851 6.714,-8.917l0.489,-0.299c3.508,-1.931 7.503,-2.312 11.092,-1.359c3.643,0.979 6.931,3.344 8.999,6.851l0.08,0.109c2.039,3.588 2.475,7.638 1.495,11.335l-0.163,0.517c6.498,2.664 13.512,3.915 20.553,3.697c7.802,-0.271 15.687,-2.42 22.943,-6.605c11.826,-6.823 19.764,-17.807 23.026,-30.039c3.262,-12.125 1.93,-25.5 -4.757,-37.244l-0.301,-0.517c-6.851,-11.689 -17.751,-19.573 -29.902,-22.809c-12.125,-3.262 -25.5,-1.929 -37.242,4.759l-54.48,31.453l0,0l-0.08,0.054l-0.083,0.055l-18.269,10.548l-0.164,0.081l-53.39,30.827l0,0l0.189,0.354l0.083,0.137l0.108,0.244l0.189,0.381l0,0l0.163,0.354l0.189,0.381l0.163,0.381l0.055,0.108l0.137,0.272l0.163,0.379l0.163,0.381l0.109,0.218l0.055,0.163l0.163,0.381l0.026,0.082l0.137,0.298c0.679,1.658 1.277,3.345 1.793,5.058l0.109,0.38l0,0.026l0.108,0.408l0.244,0.871l0.163,0.651l0.028,0.082c1.412,5.573 1.984,11.363 1.63,17.181l0,0.217l-0.026,0.219l-0.028,0.462l0,0l-0.026,0.462l-0.137,1.359l-0.026,0.245l-0.026,0.218l-0.245,1.82l-0.055,0.436l-0.026,0.244l-0.055,0.218l-0.082,0.462l0,0l-0.081,0.435l-0.028,0.245l-0.054,0.217l-0.081,0.463l-0.108,0.436l-0.028,0.244l-0.055,0.217l-0.108,0.463l0,0l-0.109,0.435l-0.026,0.218l-0.054,0.245l-0.137,0.435l-0.109,0.462l-0.055,0.218l-0.054,0.218l-0.136,0.462l0,0l-0.108,0.435l-0.081,0.245l-0.054,0.217l-0.138,0.436l0,0l-0.135,0.462l-0.082,0.217l-0.055,0.218l-0.163,0.436l0,0.027l-0.462,1.305l0,0l-0.245,0.68l-0.081,0.218l-0.163,0.435l0,0l-0.544,1.305l0,0.027c-0.353,0.869 -0.762,1.74 -1.169,2.582l0,0.027l-0.625,1.278l0,0c-0.435,0.869 -0.897,1.713 -1.386,2.555l-0.108,0.163l-0.109,0.164l-0.108,0.189l-0.055,0.109l-0.055,0.081l-0.108,0.19l-0.108,0.163l-0.109,0.19l0,0l-0.108,0.189l-0.109,0.164l-0.108,0.19l-0.108,0.163l-0.138,0.19l-0.108,0.163l-0.081,0.163l-0.027,0.027l-0.107,0.163l-0.108,0.189l-0.138,0.163l-0.026,0.055l-0.082,0.136l-0.108,0.163l-0.136,0.163l-0.054,0.136l-0.055,0.055l-0.109,0.163l-0.137,0.163l-0.108,0.19l0,0.027l-0.109,0.136l-0.135,0.163l-0.108,0.163l-0.083,0.108l-0.054,0.082l-0.109,0.163l-0.135,0.163l-0.109,0.163l0,0l-0.135,0.163l-0.108,0.163l-0.138,0.19l-0.054,0.055l-0.055,0.081l-0.135,0.19l-0.137,0.163l-0.109,0.136l0,0.027l-0.135,0.163l-0.137,0.163l-0.109,0.136l-0.055,0.055l-0.08,0.108l-0.136,0.163l-0.137,0.163l-0.08,0.137l-0.028,0.027l-0.135,0.163l-0.138,0.136l-0.135,0.162l-0.028,0.055l-0.108,0.108l-0.135,0.163l-0.138,0.164l-0.08,0.081l-0.055,0.055l-0.108,0.163l-0.138,0.136l-0.135,0.163l-0.028,0.027l-0.108,0.136l-0.135,0.137l-0.136,0.163l-0.082,0.081l-0.055,0.054l-0.135,0.163l-0.137,0.136l-0.136,0.164l-0.028,0l-0.271,0.299l-0.135,0.136l-0.055,0.082l-0.055,0.027l-0.218,0.217l-0.108,0.137l-0.108,0.108l0,0l-0.109,0.109l-0.108,0.108l-0.109,0.107l-0.108,0.109l-0.055,0.054l-0.055,0.055l-0.108,0.109l-0.135,0.108l-0.109,0.108l-0.217,0.218l-0.109,0.109l-0.108,0.108l-0.354,0.326l-0.107,0.109l-0.108,0.108l-0.246,0.217l-0.108,0.108l-0.109,0.109l-0.109,0.081l-0.054,0.055l-0.081,0.055l-0.109,0.108l-0.109,0.109l-0.109,0.108l-0.109,0.081l-0.028,0l-0.109,0.109l-0.109,0.108l-0.135,0.109l-0.218,0.19l-0.135,0.108l-0.109,0.108l-0.108,0.082l-0.083,0.081l-0.055,0.027l-0.109,0.108l-0.135,0.082l-0.109,0.108l-0.109,0.081l-0.028,0.027l-0.218,0.19l-0.135,0.082l-0.109,0.108l-0.082,0.055l-0.055,0.027l-0.107,0.108l-0.109,0.082l-0.137,0.108l-0.109,0.082l0,0l-0.135,0.108l-0.108,0.082l-0.137,0.108l-0.109,0.082l-0.054,0.053l-0.081,0.055l-0.137,0.082l-0.108,0.081l-0.135,0.109l-0.109,0.081l0,0l-0.137,0.109c6.958,10.085 17.1,16.882 28.272,19.791c12.126,3.153 25.474,1.739 37.19,-5.029l0.189,-0.082c7.15,-4.187 12.887,-9.896 16.991,-16.502c3.778,-6.007 6.198,-12.775 7.123,-19.735c-1.604,-0.326 -3.182,-0.897 -4.677,-1.739c-3.561,-2.066 -5.98,-5.383 -6.959,-9.08c-0.951,-3.589 -0.599,-7.559 1.359,-11.064l0.299,-0.518c2.066,-3.425 5.301,-5.734 8.918,-6.715c3.588,-0.95 7.556,-0.57 11.063,1.359l0.517,0.3c1.305,0.797 2.473,1.776 3.452,2.891z"/>
 </g>
</svg>